<?xml version="1.0" encoding="UTF-8" standalone="no"?>
<svg
   xmlns:dc="http://purl.org/dc/elements/1.1/"
   xmlns:cc="http://creativecommons.org/ns#"
   xmlns:rdf="http://www.w3.org/1999/02/22-rdf-syntax-ns#"
   xmlns:svg="http://www.w3.org/2000/svg"
   xmlns="http://www.w3.org/2000/svg"
   version="1.1"
   id="svg4164"
   viewBox="0 0 40 40"
   height="40"
   width="40">
  <defs
     id="defs4166" />
  <metadata
     id="metadata4169">
    <rdf:RDF>
      <cc:Work
         rdf:about="">
        <dc:format>image/svg+xml</dc:format>
        <dc:type
           rdf:resource="http://purl.org/dc/dcmitype/StillImage" />
        <dc:title></dc:title>
      </cc:Work>
    </rdf:RDF>
  </metadata>
  <g
     transform="translate(0,-1012.3622)"
     id="layer1">
    <path
       id="path4213"
       d="m 0.46731741,1050.6545 1.22142439,-8.9214 26.6887412,-26.7219 c 3.202479,-3.7244 5.807363,-3.5129 9.370862,0.1987 3.563498,3.7116 2.558106,5.9836 -0.794703,9.139 l -26.258278,26.3576 -8.5732722,1.5061 c -1.45525457,0.3589 -1.89014834,-0.2651 -1.65477439,-1.5581 z"
       style="fill:#000000;fill-opacity:1;fill-rule:evenodd;stroke:none;stroke-width:1px;stroke-linecap:butt;stroke-linejoin:miter;stroke-opacity:1" />
    <path
       id="path4186"
       d="M 1.7284768,1050.9648 3,1042.3622 l 27,-27 c 2,-2 4,-2 6,0 l 1,1 c 2,2 2,4 0,6 l -27,27 z"
       style="fill:#ffffff;fill-opacity:1;fill-rule:evenodd;stroke:none;stroke-width:1px;stroke-linecap:butt;stroke-linejoin:miter;stroke-opacity:1" />
    <path
       id="path4219"
       d="m 27.824394,1017.1281 7.409747,7.4097 -1.058535,1.0585 -7.409747,-7.4097 z"
       style="fill:#000000;fill-opacity:1;fill-rule:evenodd;stroke:none;stroke-width:1px;stroke-linecap:butt;stroke-linejoin:miter;stroke-opacity:1" />
    <path
       id="path4219-5"
       d="m 25.023414,1019.8744 7.491697,7.4097 -1.070243,1.0585 -7.491697,-7.4097 z"
       style="fill:#000000;fill-opacity:1;fill-rule:evenodd;stroke:none;stroke-width:1px;stroke-linecap:butt;stroke-linejoin:miter;stroke-opacity:1" />
    <path
       id="path4219-5-7"
       d="m 3.9038671,1041.2749 7.4916969,7.4097 -1.070243,1.0585 -7.4916969,-7.4097 z"
       style="fill:#000000;fill-opacity:1;fill-rule:evenodd;stroke:none;stroke-width:1px;stroke-linecap:butt;stroke-linejoin:miter;stroke-opacity:1" />
    <path
       id="path4257"
       d="m 1.5453327,1048.8969 2.0604436,2.0605 -2.2477567,0.4682 z"
       style="fill:#000000;fill-rule:evenodd;stroke:none;stroke-width:1px;stroke-linecap:butt;stroke-linejoin:miter;stroke-opacity:1;fill-opacity:1" />
  </g>
</svg>
